<svg xmlns="http://www.w3.org/2000/svg" viewBox="0 0 64 64" width="64" height="64">
  <ellipse cx="32" cy="46" rx="26" ry="10" fill="rgba(0,0,0,0.5)"/>
  <path d="M12 40 Q24 32 44 36 Q52 46 40 52 Q22 54 12 40 Z" fill="#047857" stroke="#064e3b" stroke-width="1.5"/>
  <path d="M16 42 Q26 36 40 38 Q46 46 36 50 Q22 51 16 42 Z" fill="#059669"/>
  <rect x="8" y="42" width="14" height="6" rx="2" fill="#1e293b" stroke="#0f172a" stroke-width="1.5" transform="rotate(-10 15 45)"/>
  <rect x="6" y="44" width="6" height="7" rx="2" fill="#0f172a"/>
  <path d="M20 36 L36 34 L38 48 L22 50 Z" fill="#334155" stroke="#1e293b" stroke-width="2"/>
  <rect x="22" y="42" width="14" height="4" fill="#d97706"/>
  <circle cx="42" cy="42" r="10" fill="#64748b" stroke="#334155" stroke-width="2"/>
  <path d="M38 32 Q42 28 44 33 L41 38 Z" fill="#ef4444"/>
  <polygon points="40,40 50,42 48,46 38,44" fill="#0f172a"/>
</svg>