<svg xmlns="http://www.w3.org/2000/svg" viewBox="0 0 64 64" width="64" height="64">
  <ellipse cx="32" cy="58" rx="19" ry="5" fill="rgba(0,0,0,0.3)"/>
  <path d="M22 26 L12 52 L26 50 L28 28 Z" fill="#047857" stroke="#064e3b" stroke-width="1.5"/>
  <rect x="23" y="44" width="8" height="12" rx="2" fill="#334155" stroke="#1e293b" stroke-width="1.5"/>
  <rect x="21" y="52" width="12" height="5" rx="2" fill="#1e293b"/>
  <rect x="29" y="44" width="8" height="12" rx="2" fill="#475569" stroke="#1e293b" stroke-width="1.5"/>
  <rect x="27" y="52" width="12" height="5" rx="2" fill="#1e293b"/>
  <path d="M22 24 L38 26 L36 46 L24 45 Z" fill="#334155" stroke="#1e293b" stroke-width="2"/>
  <rect x="23" y="42" width="14" height="4" fill="#d97706"/>
  <!-- 側面の手袋拳 -->
  <circle cx="26" cy="34" r="3.5" fill="#fbcfe8" stroke="#334155" stroke-width="1.2"/>
  <circle cx="38" cy="30" r="3.5" fill="#fbcfe8" stroke="#334155" stroke-width="1.2"/>
  <circle cx="30" cy="18" r="12" fill="#64748b" stroke="#334155" stroke-width="2"/>
  <path d="M25 6 Q32 2 33 8 L29 14 L24 14 Z" fill="#ef4444"/>
  <polygon points="30,16 42,18 40,22 30,20" fill="#0f172a"/>
  <rect x="36" y="18" width="5" height="2" fill="#38bdf8"/>
</svg>