<svg xmlns="http://www.w3.org/2000/svg" viewBox="0 0 64 64" width="64" height="64">
  <!-- 接地大型ドロップシャドウ -->
  <ellipse cx="32" cy="60" rx="24" ry="4.5" fill="rgba(0,0,0,0.55)"/>

  <!-- 背後の巨大な紫黒の魔王マント（多層ドレープ＆陰影） -->
  <path d="M12 24 L5 58 Q32 63 59 58 L52 24 Z" fill="#3b0764" stroke="#1e1b4b" stroke-width="2"/>
  <path d="M16 26 L10 56 Q32 60 54 56 L48 26 Z" fill="#581c87"/>
  <path d="M20 28 L15 54 Q32 57 49 54 L44 28 Z" fill="#7e22ce" opacity="0.35"/>

  <!-- 重厚な魔界甲冑の胴体（多面体エッジハイライト） -->
  <rect x="19" y="23" width="26" height="29" rx="4" fill="#0f172a" stroke="#6b21a8" stroke-width="2"/>
  <rect x="21" y="25" width="22" height="25" rx="3" fill="#1e1b4b"/>
  <!-- 甲冑のエッジハイライト -->
  <line x1="20" y1="24" x2="44" y2="24" stroke="#a855f7" stroke-width="1.2"/>
  <line x1="20" y1="24" x2="20" y2="51" stroke="#a855f7" stroke-width="1.2"/>

  <!-- 胸当ての紅蓮コアジュエル（スライム基準の多層魔力核構造） -->
  <circle cx="32" cy="36" r="8" fill="#991b1b" opacity="0.45"/>
  <polygon points="32,27 39,36 32,45 25,36" fill="#dc2626" stroke="#fbbf24" stroke-width="1.5"/>
  <polygon points="32,29 37,36 32,43 27,36" fill="#ef4444"/>
  <circle cx="32" cy="36" r="3.2" fill="#fef08a"/>
  <circle cx="31.2" cy="35.2" r="1.3" fill="#ffffff"/>

  <!-- 巨大な肩当て（ショルダーアーマー・鋭利なスパイク） -->
  <!-- 左肩 -->
  <polygon points="9,19 22,21 17,34 7,29" fill="#1e1b4b" stroke="#7e22ce" stroke-width="1.8"/>
  <polygon points="9,19 21,21 16,26 8,24" fill="#3b0764"/>
  <line x1="9" y1="20" x2="16" y2="32" stroke="#c084fc" stroke-width="1"/>
  <!-- 右肩 -->
  <polygon points="55,19 42,21 47,34 57,29" fill="#1e1b4b" stroke="#7e22ce" stroke-width="1.8"/>
  <polygon points="55,19 43,21 48,26 56,24" fill="#3b0764"/>
  <line x1="55" y1="20" x2="48" y2="32" stroke="#c084fc" stroke-width="1"/>

  <!-- 兜・頭部（漆黒ヘルメット・エッジ光） -->
  <rect x="23" y="11" width="18" height="15" rx="3.5" fill="#0f172a" stroke="#6b21a8" stroke-width="2"/>
  <line x1="24" y1="12" x2="40" y2="12" stroke="#a855f7" stroke-width="1.4"/>
  <ellipse cx="32" cy="13" rx="5" ry="1.5" fill="#ffffff" opacity="0.5"/>

  <!-- 巨大な漆黒の双角（紫光ハイライト＆鋭角） -->
  <!-- 左角 -->
  <path d="M24 13 Q13 5 9 -1 Q17 7 26 11 Z" fill="#4c1d95" stroke="#1e1b4b" stroke-width="1.5"/>
  <path d="M22 11 Q14 5 11 1 Q16 6 24 10 Z" fill="#9333ea" opacity="0.7"/>
  <!-- 右角 -->
  <path d="M40 13 Q51 5 55 -1 Q47 7 38 11 Z" fill="#4c1d95" stroke="#1e1b4b" stroke-width="1.5"/>
  <path d="M42 11 Q50 5 53 1 Q48 6 40 10 Z" fill="#9333ea" opacity="0.7"/>

  <!-- 兜のスリット・ギラつく生きた紅蓮邪眼（スライム基準の多層瞳・白ハイライト2点） -->
  <line x1="25" y1="18" x2="39" y2="18" stroke="#000000" stroke-width="3.5" stroke-linecap="round"/>
  <line x1="25" y1="18" x2="39" y2="18" stroke="#991b1b" stroke-width="2" stroke-linecap="round"/>
  <!-- 左邪眼 -->
  <circle cx="28" cy="18" r="2.2" fill="#ef4444"/>
  <circle cx="28" cy="18" r="1.3" fill="#fef08a"/>
  <circle cx="27.5" cy="17.3" r="0.6" fill="#ffffff"/>
  <!-- 右邪眼 -->
  <circle cx="36" cy="18" r="2.2" fill="#ef4444"/>
  <circle cx="36" cy="18" r="1.3" fill="#fef08a"/>
  <circle cx="35.5" cy="17.3" r="0.6" fill="#ffffff"/>

  <!-- 漆黒の脚部・鉄甲冑（ハイライト付き） -->
  <rect x="22" y="52" width="8" height="8.5" rx="2" fill="#0f172a" stroke="#6b21a8" stroke-width="1.3"/>
  <rect x="23" y="53" width="6" height="3" fill="#334155"/>
  <rect x="34" y="52" width="8" height="8.5" rx="2" fill="#0f172a" stroke="#6b21a8" stroke-width="1.3"/>
  <rect x="35" y="53" width="6" height="3" fill="#334155"/>

  <!-- 右手: 破滅の魔導大剣（アビス・ブレード・暗黒オーラと稲妻） -->
  <g>
    <!-- 大剣の柄と鍔 -->
    <circle cx="45" cy="37" r="3.2" fill="#fbbf24" stroke="#78350f" stroke-width="0.8"/>
    <rect x="43" y="34" width="10" height="3" rx="1" fill="#78350f" transform="rotate(-40 45 37)"/>
    <!-- 大剣の身（両刃・紫電の輝き） -->
    <line x1="47" y1="35" x2="59" y2="11" stroke="#3b0764" stroke-width="5" stroke-linecap="round"/>
    <line x1="47" y1="35" x2="59" y2="11" stroke="#a855f7" stroke-width="3" stroke-linecap="round"/>
    <line x1="48" y1="33" x2="58" y2="13" stroke="#ffffff" stroke-width="1.2" stroke-linecap="round"/>
  </g>

  <!-- 立ち昇る暗黒の瘴気粒子 -->
  <circle cx="16" cy="11" r="1.8" fill="#c084fc" opacity="0.7"/>
  <circle cx="16" cy="11" r="0.8" fill="#ffffff"/>
  <circle cx="48" cy="9" r="1.8" fill="#c084fc" opacity="0.7"/>
  <circle cx="48" cy="9" r="0.8" fill="#ffffff"/>
  <circle cx="32" cy="3" r="2.2" fill="#ef4444" opacity="0.75"/>
  <circle cx="32" cy="3" r="1" fill="#fef08a"/>
</svg>