<svg xmlns="http://www.w3.org/2000/svg" viewBox="0 0 64 64" width="64" height="64">
  <ellipse cx="32" cy="58" rx="17" ry="5" fill="rgba(0,0,0,0.35)"/>
  <!-- 根の触手足 -->
  <path d="M23 45 Q16 52 14 58 Q20 55 25 48 Z" fill="#854d0e" stroke="#451a03" stroke-width="1.2"/>
  <path d="M41 45 Q48 52 50 58 Q44 55 39 48 Z" fill="#854d0e" stroke="#451a03" stroke-width="1.2"/>
  <!-- 根茎の肉体（筋張った樹根のうねり） -->
  <path d="M18 26 Q32 16 46 26 Q48 46 32 53 Q16 46 18 26 Z" fill="#a16207" stroke="#451a03" stroke-width="2"/>
  <path d="M22 32 Q32 28 42 32" stroke="#713f12" stroke-width="1.5" fill="none"/>
  <path d="M20 40 Q32 37 44 40" stroke="#713f12" stroke-width="1.5" fill="none"/>
  <!-- 狂気に充血した丸い目 -->
  <circle cx="26" cy="27" r="4.5" fill="#fef08a" stroke="#ca8a04" stroke-width="1"/>
  <circle cx="26" cy="27" r="2" fill="#dc2626"/>
  <circle cx="27" cy="26" r="0.8" fill="#ffffff"/>
  <circle cx="38" cy="27" r="4.5" fill="#fef08a" stroke="#ca8a04" stroke-width="1"/>
  <circle cx="38" cy="27" r="2" fill="#dc2626"/>
  <circle cx="39" cy="26" r="0.8" fill="#ffffff"/>
  <!-- 狂気の大口（真っ赤な口腔・鋭い歯） -->
  <ellipse cx="32" cy="38" rx="5.5" ry="7" fill="#450a0a" stroke="#7f1d1d" stroke-width="1.5"/>
  <path d="M28 34 L30 36 L32 34 L34 36 L36 34" stroke="#fef3c7" stroke-width="1.5" fill="none"/>
  <path d="M29 42 Q32 44 35 42" stroke="#ef4444" stroke-width="1.8" fill="none"/>
  <!-- 頭頂から勢いよく繁茂する毒草の花弁・大葉 -->
  <path d="M32 18 Q16 8 10 0 Q24 4 30 15 Z" fill="#15803d" stroke="#14532d" stroke-width="1.5"/>
  <path d="M32 18 Q48 8 54 0 Q40 4 34 15 Z" fill="#15803d" stroke="#14532d" stroke-width="1.5"/>
  <path d="M32 16 Q32 3 32 -2 Q38 5 33 15 Z" fill="#22c55e" stroke="#166534" stroke-width="1.5"/>
  <!-- 毒々しい花弁と胞子 -->
  <circle cx="22" cy="8" r="3.5" fill="#a855f7" stroke="#6b21a8" stroke-width="1"/>
  <circle cx="42" cy="8" r="3.5" fill="#a855f7" stroke="#6b21a8" stroke-width="1"/>
  <circle cx="32" cy="5" r="4" fill="#ec4899" stroke="#be185d" stroke-width="1"/>
  <circle cx="32" cy="5" r="1.5" fill="#fef08a"/>
</svg>