<svg xmlns="http://www.w3.org/2000/svg" viewBox="0 0 64 64" width="64" height="64">
  <ellipse cx="32" cy="58" rx="18" ry="5" fill="rgba(0,0,0,0.35)"/>
  <path d="M18 24 L2 16 Q10 28 20 30 Z" fill="#65a30d" stroke="#365314" stroke-width="1.2"/>
  <path d="M16 23 L6 18 Q12 26 18 27 Z" fill="#ec4899" opacity="0.35"/>
  <circle cx="5" cy="20" r="1.5" fill="#fbbf24"/>
  <path d="M46 24 L62 16 Q54 28 44 30 Z" fill="#65a30d" stroke="#365314" stroke-width="1.2"/>
  <path d="M48 23 L58 18 Q52 26 46 27 Z" fill="#ec4899" opacity="0.35"/>
  <rect x="23" y="46" width="7" height="10" rx="2" fill="#4d7c0f" stroke="#365314" stroke-width="1"/>
  <rect x="34" y="46" width="7" height="10" rx="2" fill="#4d7c0f" stroke="#365314" stroke-width="1"/>
  <path d="M20 30 L44 30 L42 47 L22 47 Z" fill="#78350f" stroke="#451a03" stroke-width="1.5"/>
  <line x1="28" y1="31" x2="36" y2="46" stroke="#92400e" stroke-width="2"/>
  <circle cx="24" cy="35" r="1.3" fill="#fbbf24"/>
  <circle cx="40" cy="35" r="1.3" fill="#fbbf24"/>
  <circle cx="25" cy="42" r="1.3" fill="#fbbf24"/>
  <circle cx="39" cy="42" r="1.3" fill="#fbbf24"/>
  <ellipse cx="32" cy="24" rx="14" ry="12" fill="#65a30d" stroke="#365314" stroke-width="1.5"/>
  <polygon points="32,23 30,27 34,27" fill="#4d7c0f"/>
  <path d="M28 17 Q32 15 36 17" stroke="#365314" stroke-width="1.2" fill="none"/>
  <ellipse cx="26" cy="21" rx="3.5" ry="3" fill="#fef08a" stroke="#ca8a04" stroke-width="0.8"/>
  <ellipse cx="26" cy="21" rx="1.2" ry="2.2" fill="#dc2626"/>
  <ellipse cx="38" cy="21" rx="3.5" ry="3" fill="#fef08a" stroke="#ca8a04" stroke-width="0.8"/>
  <ellipse cx="38" cy="21" rx="1.2" ry="2.2" fill="#dc2626"/>
  <path d="M26 30 Q32 34 38 30" stroke="#1f2937" stroke-width="1.5" fill="none"/>
  <polygon points="28,32 29,28 30,32" fill="#fef3c7"/>
  <polygon points="34,32 35,28 36,32" fill="#fef3c7"/>
</svg>