<svg xmlns="http://www.w3.org/2000/svg" viewBox="0 0 64 64" width="64" height="64">
  <ellipse cx="32" cy="58" rx="18" ry="5" fill="rgba(0,0,0,0.3)"/>
  <!-- 背ビレ（トゲとヒレ膜） -->
  <path d="M32 6 Q34 18 36 28 L30 26 Q30 16 32 6 Z" fill="#5eead4" stroke="#0f766e" stroke-width="1.2"/>
  <path d="M32 6 L38 12 L33 16 L40 20 L34 24" stroke="#14b8a6" stroke-width="1.5" fill="none"/>
  <!-- 足と水掻き -->
  <rect x="23" y="46" width="7" height="10" rx="2" fill="#0f766e" stroke="#134e4a" stroke-width="1"/>
  <polygon points="19,57 28,54 27,57" fill="#2dd4bf"/>
  <rect x="34" y="46" width="7" height="10" rx="2" fill="#0f766e" stroke="#134e4a" stroke-width="1"/>
  <polygon points="45,57 36,54 37,57" fill="#2dd4bf"/>
  <!-- 胴体と鱗模様 -->
  <path d="M20 28 L44 28 L42 46 L22 46 Z" fill="#0d9488" stroke="#134e4a" stroke-width="1.5"/>
  <path d="M26 32 Q29 35 32 32 Q35 35 38 32" stroke="#14b8a6" stroke-width="1.2" fill="none"/>
  <path d="M24 38 Q28 41 32 38 Q36 41 40 38" stroke="#14b8a6" stroke-width="1.2" fill="none"/>
  <!-- 魚面の頭部とエラ -->
  <ellipse cx="32" cy="22" rx="13" ry="11" fill="#0d9488" stroke="#134e4a" stroke-width="1.5"/>
  <path d="M22 23 Q20 26 22 29" stroke="#115e59" stroke-width="1.5" fill="none"/>
  <path d="M42 23 Q44 26 42 29" stroke="#115e59" stroke-width="1.5" fill="none"/>
  <!-- ギョロリとした大きな魚の眼球 -->
  <circle cx="26" cy="20" r="4" fill="#fef08a" stroke="#ca8a04" stroke-width="1"/>
  <circle cx="26" cy="20" r="1.8" fill="#000000"/>
  <circle cx="27.5" cy="18.5" r="1" fill="#ffffff"/>
  <circle cx="38" cy="20" r="4" fill="#fef08a" stroke="#ca8a04" stroke-width="1"/>
  <circle cx="38" cy="20" r="1.8" fill="#000000"/>
  <circle cx="39.5" cy="18.5" r="1" fill="#ffffff"/>
  <!-- 鋭い口元と牙 -->
  <path d="M28 28 Q32 31 36 28" stroke="#134e4a" stroke-width="1.5" fill="none"/>
  <polygon points="29,28 30,26 31,28" fill="#ffffff"/>
  <polygon points="33,28 34,26 35,28" fill="#ffffff"/>
</svg>